<svg width="16" height="16" viewBox="0 0 12 12" xmlns="http://www.w3.org/2000/svg"><path style="fill:none;stroke:#000;stroke-width:.99975;stroke-linecap:butt;stroke-linejoin:miter;stroke-miterlimit:10;stroke-dasharray:none;stroke-opacity:1" d="M6 6V1m2.5 7.5C8.5 7.121 7.379 6 6 6a2.502 2.502 0 0 0-2.5 2.5C3.5 9.879 4.621 11 6 11s2.5-1.121 2.5-2.5Z"/><path style="fill:#000;fill-opacity:1;fill-rule:nonzero;stroke:none;stroke-width:.99975;stroke-miterlimit:10;stroke-dasharray:none" d="M8.5 2.602a.899.899 0 1 0 0 1.797.899.899 0 0 0 0-1.797zm-5 0a.899.899 0 1 0 0 1.797.899.899 0 0 0 0-1.797z"/></svg>