<svg width="256" height="256" viewBox="0 0 256 256"
     xmlns="http://www.w3.org/2000/svg"
     shape-rendering="crispEdges">

  <!-- 影（濃紺） -->
  <rect x="88" y="200" width="80" height="16" fill="#1a2238" opacity="0.5"/>

  <!-- フード -->
  <rect x="96" y="72" width="64" height="48" fill="#2f3a5a"/>
  <rect x="88" y="80" width="16" height="32" fill="#2f3a5a"/>
  <rect x="160" y="80" width="16" height="32" fill="#2f3a5a"/>

  <!-- 顔 -->
  <rect x="112" y="88" width="32" height="32" fill="#3b4668"/>

  <!-- 目 -->
  <rect x="116" y="96" width="8" height="8" fill="#ff4444"/>
  <rect x="132" y="96" width="8" height="8" fill="#ff4444"/>

  <!-- 目ハイライト -->
  <rect x="118" y="98" width="2" height="2" fill="#ffffff"/>
  <rect x="134" y="98" width="2" height="2" fill="#ffffff"/>

  <!-- 体 -->
  <rect x="104" y="120" width="48" height="56" fill="#24304a"/>

  <!-- 左腕 -->
  <rect x="88" y="128" width="16" height="16" fill="#24304a"/>

  <!-- 右腕 -->
  <rect x="152" y="128" width="16" height="16" fill="#24304a"/>

  <!-- 手に持ったパン -->
  <rect x="168" y="132" width="24" height="16" fill="#f4e6c8"/>
  <rect x="168" y="132" width="24" height="4" fill="#b87333"/>

  <!-- 足 -->
  <rect x="104" y="176" width="16" height="24" fill="#1f2940"/>
  <rect x="136" y="176" width="16" height="24" fill="#1f2940"/>

</svg>
