<svg width="384" height="256" viewBox="0 0 128 128" xmlns="http://www.w3.org/2000/svg" shape-rendering="crispEdges">

  <!-- 足 -->
  <rect x="48" y="92" width="12" height="20" fill="#663399"/>
  <rect x="68" y="92" width="12" height="20" fill="#663399"/>

  <!-- 体（暗め制服ブルー） -->
  <rect x="40" y="60" width="48" height="36" fill="#552288"/>

  <!-- 腕組みポーズ -->
  <rect x="36" y="64" width="56" height="8" fill="#7744cc"/>
  <rect x="32" y="60" width="12" height="20" fill="#552288"/>
  <rect x="84" y="60" width="12" height="20" fill="#552288"/>

  <!-- 頭 -->
  <rect x="44" y="28" width="40" height="32" fill="#ff8888"/>

  <!-- 髪（濃グレー） -->
  <rect x="44" y="24" width="40" height="8" fill="#555555"/>

  <!-- 目（赤く光る） -->
  <rect x="54" y="40" width="8" height="2" fill="#ff0000"/>
  <rect x="66" y="40" width="8" height="2" fill="#ff0000"/>

  <!-- ニヤリ口 -->
  <rect x="60" y="50" width="12" height="2" fill="#cc0000"/>
  <rect x="70" y="48" width="2" height="2" fill="#cc0000"/>

  <!-- 王冠 -->
  <rect x="44" y="20" width="40" height="8" fill="#ffcc33"/>
  <rect x="48" y="16" width="8" height="8" fill="#ffcc33"/>
  <rect x="60" y="16" width="8" height="8" fill="#ffcc33"/>
  <rect x="72" y="16" width="8" height="8" fill="#ffcc33"/>

</svg>
