<?xml version="1.0" encoding="UTF-8"?>
<svg width="256" height="256" viewBox="0 0 128 128"
     xmlns="http://www.w3.org/2000/svg"
     shape-rendering="crispEdges">

  <!-- 机 -->
  <rect x="24" y="72" width="80" height="16" fill="#3a2f2a"/>

  <!-- 書類の山 -->
  <rect x="28" y="64" width="12" height="8" fill="#d8d8d8"/>
  <rect x="44" y="60" width="12" height="12" fill="#cfcfcf"/>
  <rect x="84" y="62" width="12" height="10" fill="#dcdcdc"/>

  <!-- 中央の影 -->
  <rect x="56" y="36" width="16" height="36" fill="#1c2430"/>
  <rect x="60" y="28" width="8" height="8" fill="#1c2430"/>
  <rect x="60" y="36" width="4" height="4" fill="#e6f2ff"/>
  <rect x="64" y="36" width="4" height="4" fill="#e6f2ff"/>

  <!-- 左の影 -->
  <rect x="32" y="44" width="14" height="28" fill="#253140"/>
  <rect x="36" y="38" width="6" height="6" fill="#253140"/>
  <rect x="36" y="44" width="3" height="3" fill="#e6f2ff"/>
  <rect x="39" y="44" width="3" height="3" fill="#e6f2ff"/>

  <!-- 右の影 -->
  <rect x="82" y="44" width="14" height="28" fill="#253140"/>
  <rect x="86" y="38" width="6" height="6" fill="#253140"/>
  <rect x="86" y="44" width="3" height="3" fill="#e6f2ff"/>
  <rect x="89" y="44" width="3" height="3" fill="#e6f2ff"/>

</svg>

